<?xml version="1.0" encoding="utf-8"?>
<!-- Generator: Adobe Illustrator 21.0.0, SVG Export Plug-In . SVG Version: 6.00 Build 0)  -->
<svg version="1.1" id="five" xmlns="http://www.w3.org/2000/svg" xmlns:xlink="http://www.w3.org/1999/xlink" x="0px" y="0px"
	 viewBox="0 0 1000 1000" style="enable-background:new 0 0 1000 1000;" xml:space="preserve">
<style type="text/css">
	.st0{fill:#F7F7F7;stroke:#666666;stroke-width:2;stroke-miterlimit:10;}
</style>
<g>
	<path class="st0" d="M678.6,365c-23.9-7.6-48.9,29.3-55.2,39l-30.1,59V231.8c0-9.5-3.8-18.1-9.9-24.3c-6.1-6.2-14.5-10-23.8-10
		c-18.1,0.1-32.8,14.9-33.3,33.3v-36c0-18.5-15-33.5-33.5-33.5c-18.5,0-33.5,15-33.5,33.5v26.5c0-18.5-15-33.5-33.5-33.5
		c-18.5,0-32.9,15.2-32.9,33.7v100.8c-1.2-17.4-15.4-31.2-32.9-31.2c-18.2,0-32.4,15.2-32.4,33.7V463l0.1,127.8
		c0.1,17,2.9,32.9,6.6,46.4c10.3,37.8,16,63.7,17.7,98.3c0.7,12.8,0.2,25.7-1.2,38.4l-0.1,0.3c-1.2,11.1,4.5,22,15.1,27.9
		c17.2,9.7,49.1,21.4,101.8,21.2c55.9-0.2,86-14.8,100.8-25.7c7.7-5.7,12.2-14.1,12.2-23.1l0-0.2c2.6-21.1,4.4-65.3,35.5-98
		c33.1-36.1,28.7-129.2,35.8-157.1l46.7-107.4C705.4,395.4,704.4,373.2,678.6,365z"/>
	<path class="st0" d="M601.6,231.7v196.8l14.4-28.3c0.1-0.3,0.3-0.5,0.4-0.7c12.6-19.5,37.9-50.9,64.7-42.4
		c15.6,5,22.7,14.2,25.9,21.1c4.9,10.5,4.6,24-0.7,36.8l-46.4,106.9c-1.8,7.4-2.9,20.3-4.1,35.2c-3.4,41-8,97-33.5,124.9
		c-26.3,27.6-30.3,64.4-32.6,86.5c-0.2,2.3-0.5,4.5-0.7,6.4c-0.1,11.6-5.8,22.3-15.6,29.4c-16.6,12.3-48.5,27.1-105.7,27.3
		c-0.4,0-0.9,0-1.3,0c-53.6,0-86.4-12.1-104.6-22.2c-13.3-7.3-20.9-21.5-19.3-36c0-0.1,0.1-0.6,0.1-0.8c1.3-12.2,1.7-24.7,1.1-36.7
		c-1.6-33.7-7.1-59-17.4-96.6c-4.5-16.5-6.8-32.8-6.9-48.6l0-265.9c0-23.2,18.3-42,40.7-42c9.2,0,17.7,3.1,24.6,8.2v-69.6
		c0-23.2,18.5-42,41.2-42c9.7,0,18.6,3.3,25.7,8.8c3.1-20,20.5-35.3,41.3-35.3c23.1,0,41.8,18.8,41.8,41.8v2.9
		c6.9-5.3,15.6-8.5,25-8.5c11-0.1,21.7,4.4,29.7,12.4C589.3,201.6,601.6,212.2,601.6,231.7z M360,299.5c-13.5,0-24.1,11.2-24.1,25.4
		l0,265.9c0.1,14.3,2.2,29.2,6.3,44.2c10.6,38.8,16.2,64.9,17.9,100.1c0.7,12.9,0.2,26.2-1.2,39.7c0,0.1-0.1,0.6-0.1,0.7
		c-0.8,7.5,3.4,15.1,10.9,19.3c16.4,9.2,46.4,20.1,96.5,20.1c0.4,0,0.8,0,1.3,0c55.4-0.2,83.9-15.1,95.9-24
		c5.6-4.1,8.8-10.1,8.8-16.3c0-0.4,0-0.9,0.1-1.2c0.2-2,0.5-4.2,0.7-6.7c2.6-24.1,7-64.5,37-96.1c21.6-23.5,25.9-76.3,29.1-114.9
		c1.4-16.7,2.5-29.9,4.7-38.6c0.1-0.4,0.3-0.8,0.4-1.2l46.7-107.4c3.5-8.4,3.9-17,1-23.3c-2.6-5.6-7.9-9.8-15.8-12.3
		c-13.8-4.4-32.4,15.2-45.5,35.2l-57.2,112.4c-1.2,2.3-3.4,3.9-5.9,4.4c-3.2,0.6-80.4,16.7-80.4,145.9c0,4.6-3.7,8.3-8.3,8.3
		c-4.6,0-8.3-3.7-8.3-8.3c0-127.8,71.4-156.1,89.9-161.2l24.6-48.4V231.7c0-6.9-2.7-13.5-7.5-18.5c-4.8-4.8-11-7.5-17.7-7.5
		c0,0-0.1,0-0.1,0c-13.6,0.1-24.6,11.1-25.1,25.1V463c0,4.6-3.7,8.3-8.3,8.3c-4.6,0-8.3-3.7-8.3-8.3V194.8
		c0-13.9-11.3-25.2-25.2-25.2c-13.9,0-25.2,11.3-25.2,25.2V463c0,4.6-3.7,8.3-8.3,8.3c-4.6,0-8.3-3.7-8.3-8.3V221.3
		c0-13.9-11.3-25.2-25.2-25.2c-13.8,0-24.6,11.2-24.6,25.4v100c0.1,1,0.1,2.1,0.1,3.1V463c0,4.6-3.7,8.3-8.3,8.3c0,0,0,0,0,0
		c-4.6,0-8.3-3.7-8.3-8.3l-0.1-140.8C383.4,309.5,372.8,299.5,360,299.5z"/>
</g>
</svg>
