<?xml version="1.0" encoding="utf-8"?>
<!-- Generator: Adobe Illustrator 21.0.0, SVG Export Plug-In . SVG Version: 6.00 Build 0)  -->
<svg version="1.1" id="four" xmlns="http://www.w3.org/2000/svg" xmlns:xlink="http://www.w3.org/1999/xlink" x="0px" y="0px"
	 viewBox="0 0 1000 1000" style="enable-background:new 0 0 1000 1000;" xml:space="preserve">
<style type="text/css">
	.st0{fill:#F7F7F7;stroke:#666666;stroke-width:2;stroke-miterlimit:10;}
</style>
<g>
	<g>
		<path class="st0" d="M573.3,445V158.6c0-19.8-16-35.8-35.8-35.8c-19.8,0-35.8,16-35.8,35.8v28.3c0-19.8-16-35.8-35.8-35.8
			c-19.8,0-35.1,16.2-35.1,36l0.1,110.1c0-19.8-15.7-35.8-35.2-35.8c-19.5,0-34.6,16.2-34.6,36c0,0,0,147.5,0,147.5l0.1,121.8
			c0.1,18.2,3.1,35.1,7,49.6c11,40.3,17.1,68,18.8,105c0.7,13.7,0.2,27.4-1.3,41l-0.1,0.4c-1.3,11.8,4.8,23.5,16.1,29.7
			c18.4,10.3,52.4,22.8,108.7,22.6c59.6-0.2,91.9-15.8,107.6-27.4c8.3-6,13-15.1,13-24.6v-0.2c2.3-18.8,4-54.8,23.9-86.5
			c8.9-14.1,14-30.2,14-46.9v-75.7L573.3,445z"/>
		<path class="st0" d="M509.2,823.9c-57.3,0-92.3-12.9-111.7-23.7c-14.2-7.8-22.3-22.9-20.6-38.4c0-0.2,0.1-0.7,0.1-0.8
			c1.4-13.1,1.8-26.4,1.2-39.2c-1.7-36-7.6-62.9-18.5-103.1c-4.8-17.6-7.3-35-7.4-51.9L352.2,445h0.2c-0.2-2-0.2-4.2-0.2-6.3
			l0-141.2c0-24.7,19.5-44.9,43.5-44.9c9.9,0,19,3.3,26.3,8.8l0-74.3c0-24.8,19.7-44.9,44-44.9c10.3,0,19.9,3.5,27.4,9.4
			c3.3-21.3,21.8-37.7,44.1-37.7c24.6,0,44.6,20,44.6,44.6V445c0,4.9-4,8.9-8.9,8.9c-4.9,0-8.9-4-8.9-8.9V158.6
			c0-14.8-12.1-26.9-26.9-26.9c-14.8,0-26.9,12.1-26.9,26.9v297.8c0,4.9-4,8.9-8.9,8.9c-4.9,0-8.9-4-8.9-8.9V186.9
			c0-14.8-12.1-26.9-26.9-26.9c-14.7,0-26.2,11.9-26.2,27.1l0.1,109.5c0,0.2,0,0.4,0,0.6l0.1,147.7c0,4.9-4,8.9-8.9,8.9h0
			c-4.9,0-8.9-4-8.9-8.9L422,296.8c-0.2-14.6-12-26.4-26.3-26.4c-14.4,0-25.7,11.9-25.7,27.1c0,49.9,0,144.7,0,147.4
			c0,0,0,0.1,0,0.1l0.1,121.8c0.1,15.2,2.3,31.1,6.7,47.2c11.3,41.4,17.3,69.3,19.2,106.9c0.7,13.7,0.3,28-1.3,42.4
			c0,0.1-0.1,0.6-0.1,0.8c-0.8,8.1,3.6,16.1,11.7,20.6c17.5,9.8,49.6,21.5,103,21.5c0.5,0,0.9,0,1.4,0
			c59.2-0.2,89.6-16.2,102.4-25.7c6-4.4,9.4-10.7,9.4-17.5c0-0.4,0-0.9,0.1-1.3c0.3-2.2,0.5-4.5,0.8-7.1c2.2-19.9,5.8-53.3,24.4-83
			c8.3-13.2,12.7-27.8,12.7-42.2v-75.7c0-4.9,4-8.9,8.9-8.9c4.9,0,8.9,4,8.9,8.9v75.7c0,17.7-5.3,35.5-15.4,51.6
			c-16.5,26.3-19.7,55.9-21.8,75.5c-0.3,2.5-0.5,4.8-0.8,6.9c-0.1,12.4-6.2,23.8-16.6,31.4c-17.8,13.1-51.8,28.9-112.8,29.1
			C510.1,823.9,509.6,823.9,509.2,823.9z"/>
	</g>
	<g>
		<path class="st0" d="M634.2,172.2c-6.5-6.6-15.5-10.7-25.4-10.6c-19.3,0.1-35,15.9-35.6,35.6V445l71.5,12.2V198.1
			C644.7,188,640.7,178.8,634.2,172.2z"/>
		<path class="st0" d="M644.8,466.1c-4.9,0-8.9-4-8.9-8.9V198.1c0-7.4-2.9-14.4-8.1-19.7c-5.1-5.1-11.8-8-18.9-8c0,0-0.1,0-0.1,0
			c-14.6,0.1-26.3,11.9-26.8,27l0,247.7c0,4.9-4,8.9-8.9,8.9c-4.9,0-8.9-4-8.9-8.9V197.1c0.7-24.9,20.2-44.4,44.4-44.4
			c0.1,0,0.1,0,0.2,0c11.8,0,23,4.7,31.5,13.3c8.5,8.7,13.1,20.1,13.1,32.2v259.2C653.7,462.1,649.7,466.1,644.8,466.1z"/>
	</g>
	<g>
		<path class="st0" d="M488.5,685.7c-4.9,0-8.9-4-8.9-8.9c0-61.9,14.1-107.3,41.8-134.7c25.7-25.4,53.6-25.2,54.9-25.3
			c4.9,0.1,8.8,4.1,8.8,9c-0.1,4.9-4,8.8-8.9,8.8c0,0,0,0-0.1,0c-3.4,0-78.8,1.8-78.8,142.2C497.4,681.7,493.4,685.7,488.5,685.7z"
			/>
	</g>
	<g>
		<path class="st0" d="M614.5,451.8h-92.2c-25.9,0-39.2,17.4-39.2,38.8c0,15.8,12.6,35.8,40.9,35.8h53l37.5,29.3l54.7-2
			C669.6,493.3,674.8,451.8,614.5,451.8z"/>
		<path class="st0" d="M614.4,564.6c-1.9,0-3.8-0.6-5.5-1.9l-35-27.4h-50c-32.3,0-49.8-23-49.8-44.7c0-28.5,19.3-47.7,48.1-47.7
			h92.2c21.5,0,37,5.1,47.2,15.5c17.3,17.6,17,46.3,16.5,82.7c-0.1,4.1-0.1,8.4-0.1,12.8c0,4.9-4,8.8-8.9,8.8c0,0,0,0-0.1,0
			c-4.9,0-8.8-4-8.8-8.9c0-4.4,0.1-8.7,0.1-12.9c0.4-32.2,0.8-57.7-11.3-70c-6.8-6.8-18.1-10.2-34.6-10.2h-92.2
			c-19,0-30.3,11.2-30.3,30c0,10.8,8.5,26.9,32,26.9h53c2,0,3.9,0.7,5.5,1.9l37.5,29.3c3.9,3,4.5,8.6,1.5,12.5
			C619.7,563.4,617.1,564.6,614.4,564.6z"/>
	</g>
</g>
</svg>
