<?xml version="1.0" encoding="utf-8"?>
<!-- Generator: Adobe Illustrator 21.0.0, SVG Export Plug-In . SVG Version: 6.00 Build 0)  -->
<svg version="1.1" id="one" xmlns="http://www.w3.org/2000/svg" xmlns:xlink="http://www.w3.org/1999/xlink" x="0px" y="0px"
	 viewBox="0 0 1000 1000" style="enable-background:new 0 0 1000 1000;" xml:space="preserve">
<style type="text/css">
	.st0{fill:#F7F7F7;stroke:#666666;stroke-width:2;stroke-miterlimit:10;}
</style>
<g>
	<g>
		<path class="st0" d="M357.8,462.8l0.1,128.6c0.1,19.2,3.3,37.1,7.4,52.3c11.6,42.6,18,71.8,19.9,110.9c0.7,14.4,0.2,29-1.3,43.3
			l-0.1,0.4c-1.3,12.5,5.1,24.8,17,31.4c19.4,10.9,55.3,24.1,114.8,23.9c63-0.2,97-16.6,113.7-28.9c8.7-6.4,13.7-15.9,13.7-26l0-0.2
			c2.4-19.8,4.3-57.9,25.2-91.4c9.3-14.9,14.8-31.9,14.8-49.5v-80L357.8,462.8z"/>
		<path class="st0" d="M514.2,862.9c-60.5,0-97.5-13.6-117.9-25.1c-15-8.3-23.5-24.2-21.8-40.6c0-0.2,0.1-0.7,0.1-0.9
			c1.5-13.7,1.9-27.8,1.2-41.4c-1.8-38-8-66.5-19.6-108.9c-5.1-18.5-7.7-37-7.8-54.8l-0.1-128.7c0-5.2,4.2-9.4,9.4-9.4c0,0,0,0,0,0
			c5.2,0,9.4,4.2,9.4,9.4l0.1,128.6c0.1,16.1,2.5,32.9,7.1,49.9c11.9,43.7,18.3,73.2,20.2,112.9c0.7,14.5,0.3,29.6-1.4,44.8
			c0,0.2-0.1,0.7-0.1,0.8c-0.9,8.5,3.8,17,12.3,21.7c18.5,10.4,52.4,22.7,108.8,22.7c0.5,0,1,0,1.4,0c62.5-0.2,94.6-17.1,108.1-27.1
			c6.3-4.6,9.9-11.3,9.9-18.4c0-0.4,0-1,0.1-1.4c0.3-2.3,0.5-4.8,0.8-7.5c2.3-21.1,6.1-56.3,25.8-87.7c8.8-14,13.4-29.4,13.4-44.5
			v-80c0-5.2,4.2-9.4,9.4-9.4c5.2,0,9.4,4.2,9.4,9.4v80c0,18.7-5.6,37.5-16.3,54.5c-17.4,27.7-20.8,59-23,79.7
			c-0.3,2.6-0.5,5-0.8,7.2c-0.1,13.1-6.5,25.1-17.6,33.2c-18.8,13.9-54.7,30.5-119.2,30.7C515.2,862.9,514.7,862.9,514.2,862.9z"/>
	</g>
	<g>
		<path class="st0" d="M646.3,174.6c-6.9-7-16.3-11.3-26.8-11.2c-20.4,0.1-37,16.8-37.6,37.6v279.9l75.5-5.2V202
			C657.4,191.3,653.1,181.6,646.3,174.6z"/>
		<path class="st0" d="M581.9,490.2c-5.2,0-9.4-4.2-9.4-9.4V200.9c0.8-26.4,21.4-46.8,46.9-46.9c0.1,0,0.1,0,0.2,0
			c12.5,0,24.3,5,33.3,14c8.9,9.2,13.8,21.2,13.9,34v273.7c0,5.2-4.2,9.4-9.4,9.4c-5.2,0-9.4-4.2-9.4-9.4V202c0-7.8-3-15.2-8.5-20.9
			c-5.4-5.4-12.5-8.4-19.9-8.4c0,0-0.1,0-0.1,0c-15.4,0.1-27.8,12.6-28.3,28.5l0,279.6C591.3,486,587.1,490.2,581.9,490.2z"/>
	</g>
	<g>
		<path class="st0" d="M492.4,707.6L585,548C585,548,492.4,546.8,492.4,707.6z"/>
		<path class="st0" d="M492.4,716.9c-5.2,0-9.4-4.2-9.4-9.4c0-65.4,14.9-113.3,44.2-142.2c27.2-26.8,56.8-26.6,58-26.7
			c5.2,0.1,9.3,4.3,9.2,9.5c-0.1,5.1-4.3,9.2-9.4,9.2c0,0,0,0-0.1,0c-3.6,0-83.2,1.9-83.2,150.2
			C501.7,712.8,497.5,716.9,492.4,716.9z"/>
	</g>
	<g>
		<path class="st0" d="M544.2,558.7c-20.9-0.7-35.8-13.2-37.2-33.3l0-125.7l0-21.1v-15.9c0-20.8,16.9-37.7,37.7-37.7
			c20.8,0,37.2,16.9,37.2,37.7l0,161.9c0,10.4-4.2,19.9-11.1,26.7C563.9,558.2,553.2,559.1,544.2,558.7z"/>
		<path class="st0" d="M547.3,568.2c-1.2,0-2.3,0-3.4-0.1l0,0c-26.3-0.9-44.5-17.4-46.2-42c0-0.2,0-0.5,0-0.7l0-162.7
			c0-26,21.1-47.1,47.1-47.1c25.7,0,46.6,21.1,46.6,47.1l0,161.9c0,12.7-4.9,24.5-13.8,33.3C568.7,566.7,556.7,568.2,547.3,568.2z
			 M544.5,549.4c9.9,0.3,16.2-1.2,19.8-4.7c5.3-5.3,8.3-12.4,8.3-20l0-161.9c0-15.9-12.2-28.4-27.8-28.4
			c-15.6,0-28.4,12.7-28.4,28.4l0,162.4C517.5,539.7,528.1,548.8,544.5,549.4L544.5,549.4z"/>
	</g>
	<g>
		<path class="st0" d="M394.7,524.9c-20.3,0-36.8-16.5-36.8-36.8v-92.4c0-20.3,16.5-36.8,36.8-36.8l0,0c20.3,0,36.8,16.5,36.8,36.8
			v92.4C431.5,508.4,415,524.9,394.7,524.9L394.7,524.9z"/>
		<path class="st0" d="M394.7,534.3c-25.5,0-46.2-20.7-46.2-46.2v-92.4c0-25.5,20.7-46.2,46.2-46.2c25.5,0,46.2,20.7,46.2,46.2v92.4
			C440.9,513.6,420.1,534.3,394.7,534.3z M394.7,368.2c-15.1,0-27.5,12.3-27.5,27.5v92.4c0,15.1,12.3,27.5,27.5,27.5
			c15.1,0,27.5-12.3,27.5-27.5v-92.4C422.1,380.5,409.8,368.2,394.7,368.2z"/>
	</g>
	<g>
		<path class="st0" d="M469.2,325c-20.8,0-37.7,16.9-37.7,37.7v140.1c0,20.8,16.9,37.7,37.7,37.7l0,0c20.8,0,37.7-16.9,37.7-37.7
			V362.7C507,341.9,490.1,325,469.2,325L469.2,325z"/>
		<path class="st0" d="M469.2,549.9c-26,0-47.1-21.1-47.1-47.1V362.7c0-26,21.1-47.1,47.1-47.1s47.1,21.1,47.1,47.1v140.1
			C516.3,528.8,495.2,549.9,469.2,549.9z M469.2,334.3c-15.6,0-28.4,12.7-28.4,28.4v140.1c0,15.6,12.7,28.4,28.4,28.4
			c15.6,0,28.4-12.7,28.4-28.4V362.7C497.6,347.1,484.9,334.3,469.2,334.3z"/>
	</g>
	<g>
		<path class="st0" d="M625.4,469.9H528c-27.3,0-41.4,18.4-41.4,41c0,16.7,13.3,37.8,43.2,37.8h56l39.6,30.9l57.8-2.1
			C683.6,513.8,689.2,469.9,625.4,469.9z"/>
		<path class="st0" d="M625.4,589c-2,0-4.1-0.6-5.8-2l-37-29h-52.8c-34.2,0-52.6-24.3-52.6-47.2c0-30.1,20.4-50.4,50.8-50.4h97.4
			c22.7,0,39,5.3,49.9,16.3c18.3,18.5,17.9,48.9,17.4,87.3c-0.1,4.4-0.1,8.9-0.2,13.5c0,5.2-4.2,9.3-9.4,9.3c0,0,0,0-0.1,0
			c-5.2,0-9.3-4.3-9.3-9.4c0-4.6,0.1-9.2,0.2-13.6c0.5-34.1,0.8-60.9-12-73.9c-7.1-7.2-19.1-10.7-36.5-10.7H528
			c-20,0-32,11.8-32,31.7c0,11.4,9,28.4,33.8,28.4h56c2.1,0,4.1,0.7,5.8,2l39.6,30.9c4.1,3.2,4.8,9.1,1.6,13.2
			C630.9,587.8,628.2,589,625.4,589z"/>
	</g>
</g>
</svg>
