<?xml version="1.0" encoding="utf-8"?>
<!-- Generator: Adobe Illustrator 21.0.0, SVG Export Plug-In . SVG Version: 6.00 Build 0)  -->
<svg version="1.1" id="three" xmlns="http://www.w3.org/2000/svg" xmlns:xlink="http://www.w3.org/1999/xlink" x="0px" y="0px"
	 viewBox="0 0 1000 1000" style="enable-background:new 0 0 1000 1000;" xml:space="preserve">
<style type="text/css">
	.st0{fill:#F7F7F7;stroke:#666666;stroke-width:2;stroke-miterlimit:10;}
</style>
<g>
	<g>
		<path class="st0" d="M497.5,453.5V169c0-20.9-16.9-37.8-37.8-37.8c-20.9,0-37.1,17.1-37.1,38v297.1L349,441.4L349,570
			c0.1,19.2,3.3,37.1,7.4,52.3c11.6,42.6,18,71.8,19.9,110.8c0.7,14.4,0.2,29-1.3,43.3l-0.1,0.4c-1.3,12.5,5.1,24.8,17,31.4
			c19.4,10.9,55.3,24.1,114.8,23.9c63-0.2,97-16.6,113.6-28.9c8.7-6.4,13.7-15.9,13.7-26l0-0.2c2.4-19.8,4.3-57.9,25.2-91.3
			c9.3-14.9,14.8-31.9,14.8-49.5v-79.9L497.5,453.5z"/>
		<path class="st0" d="M505.3,841.5c-60.5,0-97.4-13.6-117.9-25c-14.9-8.3-23.5-24.2-21.8-40.6c0-0.2,0.1-0.7,0.1-0.9
			c1.5-13.7,1.9-27.8,1.2-41.4c-1.8-38-8-66.5-19.6-108.8c-5.1-18.6-7.7-37-7.8-54.7l-0.1-128.6c0-3,1.5-5.9,3.9-7.6
			c2.5-1.8,5.6-2.2,8.5-1.3l61.3,20.7v-284c0-26.1,20.8-47.4,46.4-47.4c26,0,47.1,21.1,47.1,47.1v284.5c0,5.2-4.2,9.4-9.4,9.4
			c-5.2,0-9.4-4.2-9.4-9.4V169c0-15.7-12.7-28.4-28.4-28.4c-15.5,0-27.7,12.6-27.7,28.6v297.1c0,3-1.5,5.8-3.9,7.6
			c-2.5,1.8-5.6,2.2-8.5,1.3l-61.3-20.7l0,115.5c0.1,16.1,2.5,32.9,7.1,49.8c11.9,43.7,18.3,73.2,20.2,112.8
			c0.7,14.5,0.3,29.6-1.4,44.8c0,0.2-0.1,0.7-0.1,0.8c-0.9,8.5,3.8,17,12.3,21.7c18.5,10.4,52.3,22.7,108.7,22.7c0.5,0,1,0,1.4,0
			c62.5-0.2,94.5-17.1,108.1-27.1c6.3-4.6,9.9-11.3,9.9-18.4c0-0.4,0-1,0.1-1.4c0.3-2.3,0.5-4.8,0.8-7.5
			c2.3-21.1,6.1-56.3,25.8-87.7c8.8-14,13.4-29.4,13.4-44.5v-79.9c0-5.2,4.2-9.4,9.4-9.4s9.4,4.2,9.4,9.4v79.9
			c0,18.7-5.6,37.5-16.3,54.5c-17.4,27.7-20.8,59-23,79.8c-0.3,2.6-0.5,5-0.8,7.2c-0.1,13.1-6.5,25.1-17.6,33.2
			c-18.7,13.9-54.7,30.5-119.1,30.7C506.3,841.5,505.8,841.5,505.3,841.5z"/>
	</g>
	<g>
		<path class="st0" d="M535.2,101.4c-20.9,0-37.8,16.9-37.8,37.8v302.2l75.5,0.1V139.1C573,118.3,556.1,101.4,535.2,101.4z"/>
		<path class="st0" d="M573,450.8c-5.2,0-9.4-4.2-9.4-9.4V139.1c0-15.7-12.7-28.4-28.4-28.4c-15.7,0-28.4,12.7-28.4,28.4v302.2
			c0,5.2-4.2,9.4-9.4,9.4c-5.2,0-9.4-4.2-9.4-9.4V139.1c0-26,21.1-47.1,47.1-47.1c26,0,47.1,21.1,47.1,47.1v302.3
			C582.3,446.6,578.1,450.8,573,450.8z"/>
	</g>
	<g>
		<path class="st0" d="M637.3,153.4c-6.9-7-16.3-11.3-26.8-11.2c-20.4,0.1-37,16.8-37.6,37.6v268.9l75.5,5.8V180.8
			C648.4,170.1,644.2,160.4,637.3,153.4z"/>
		<path class="st0" d="M648.5,463.7c-5.2,0-9.4-4.2-9.4-9.4V180.8c0-7.8-3-15.2-8.5-20.8c-5.4-5.4-12.4-8.4-19.9-8.4
			c0,0-0.1,0-0.1,0c-15.4,0.1-27.8,12.6-28.3,28.5l0,268.6c0,5.2-4.2,9.4-9.4,9.4c-5.2,0-9.4-4.2-9.4-9.4V179.7
			c0.8-26.3,21.4-46.8,46.9-46.9c0.1,0,0.1,0,0.2,0c12.5,0,24.3,5,33.3,14c8.9,9.2,13.8,21.2,13.9,33.9v273.6
			C657.8,459.5,653.6,463.7,648.5,463.7z"/>
	</g>
	<g>
		<path class="st0" d="M483.5,695.5c-5.2,0-9.4-4.2-9.4-9.4c0-65.4,14.9-113.2,44.2-142.2c27.2-26.8,56.7-26.6,58-26.7
			c5.2,0.1,9.3,4.3,9.2,9.5c-0.1,5.1-4.3,9.2-9.4,9.2c0,0,0,0-0.1,0c-3.6,0-83.2,1.9-83.2,150.2
			C492.8,691.3,488.6,695.5,483.5,695.5z"/>
	</g>
	<g>
		<path class="st0" d="M385.8,503.6c-20.3,0-36.8-16.5-36.8-36.8v-92.4c0-20.3,16.5-36.8,36.8-36.8l0,0c20.3,0,36.8,16.5,36.8,36.8
			v92.4C422.6,487.1,406.1,503.6,385.8,503.6L385.8,503.6z"/>
		<path class="st0" d="M385.8,512.9c-25.5,0-46.2-20.7-46.2-46.2v-92.4c0-25.5,20.7-46.2,46.2-46.2c25.5,0,46.2,20.7,46.2,46.2v92.4
			C432,492.2,411.3,512.9,385.8,512.9z M385.8,346.9c-15.1,0-27.4,12.3-27.4,27.5v92.4c0,15.1,12.3,27.4,27.4,27.4
			c15.1,0,27.5-12.3,27.5-27.4v-92.4C413.3,359.2,400.9,346.9,385.8,346.9z"/>
	</g>
	<g>
		<path class="st0" d="M616.5,448.6h-97.3c-27.3,0-41.4,18.4-41.4,41c0,16.7,13.3,37.8,43.2,37.8h56l39.5,30.9l57.7-2.1
			C674.6,492.4,680.2,448.6,616.5,448.6z"/>
		<path class="st0" d="M616.4,567.7c-2,0-4.1-0.6-5.8-2l-37-28.9h-52.7c-34.1,0-52.6-24.3-52.6-47.2c0-30.1,20.4-50.4,50.7-50.4
			h97.3c22.7,0,39,5.3,49.9,16.3c18.3,18.5,17.9,48.9,17.4,87.3c-0.1,4.4-0.1,8.9-0.2,13.5c0,5.2-4.2,9.3-9.4,9.3c0,0,0,0-0.1,0
			c-5.2,0-9.3-4.3-9.3-9.4c0-4.6,0.1-9.2,0.2-13.6c0.5-34,0.8-60.9-12-73.9c-7.1-7.2-19.1-10.7-36.5-10.7h-97.3
			c-20,0-32,11.8-32,31.6c0,11.4,9,28.4,33.8,28.4h56c2.1,0,4.1,0.7,5.8,2l39.5,30.9c4.1,3.2,4.8,9.1,1.6,13.1
			C622,566.4,619.2,567.7,616.4,567.7z"/>
	</g>
</g>
</svg>
