<?xml version="1.0" encoding="utf-8"?>
<!-- Generator: Adobe Illustrator 21.0.0, SVG Export Plug-In . SVG Version: 6.00 Build 0)  -->
<svg version="1.1" id="two" xmlns="http://www.w3.org/2000/svg" xmlns:xlink="http://www.w3.org/1999/xlink" x="0px" y="0px"
	 viewBox="0 0 1000 1000" style="enable-background:new 0 0 1000 1000;" xml:space="preserve">
<style type="text/css">
	.st0{fill:#F7F7F7;stroke:#666666;stroke-width:2;stroke-miterlimit:10;}
</style>
<g>
	<g>
		<path class="st0" d="M560.8,531.2c3.8,21.8-10.7,42.6-32.5,46.4l0,0c-21.8,3.8-42.6-10.7-46.4-32.5L410.5,139
			c-3.8-21.8,10.7-42.6,32.5-46.4l0,0c21.8-3.8,42.6,10.7,46.4,32.5L560.8,531.2z"/>
		<path class="st0" d="M521.2,588.2c-10.2,0-20.1-3.1-28.6-9.1c-10.9-7.7-18.2-19.2-20.5-32.3l-71.3-406.1
			c-2.3-13.2,0.6-26.4,8.3-37.4c7.7-10.9,19.1-18.2,32.3-20.5c13.2-2.3,26.4,0.6,37.4,8.3c10.9,7.7,18.2,19.1,20.5,32.3l71.3,406.1
			c2.3,13.2-0.6,26.4-8.3,37.4c-7.7,10.9-19.1,18.2-32.3,20.5C527,588,524.1,588.2,521.2,588.2z M450,101.9c-1.7,0-3.5,0.2-5.3,0.5
			c-16.4,2.9-27.3,18.5-24.5,34.9l71.3,406.1c1.4,7.9,5.8,14.8,12.4,19.5c6.6,4.6,14.6,6.4,22.5,5c7.9-1.4,14.8-5.8,19.5-12.4
			c4.6-6.6,6.4-14.6,5-22.5l0,0l-71.3-406.1c-1.4-7.9-5.8-14.8-12.4-19.5C462.1,103.8,456.2,101.9,450,101.9z"/>
	</g>
	<g>
		<path class="st0" d="M320.3,437.6l0.1,136.5c0.1,20.4,3.5,39.4,7.9,55.5c12.3,45.2,19.1,76.2,21.1,117.6c0.8,15.3,0.2,30.7-1.4,46
			l-0.1,0.4c-1.4,13.3,5.4,26.3,18.1,33.3c20.6,11.6,58.7,25.6,121.8,25.3c66.8-0.2,103-17.7,120.6-30.7
			c9.3-6.8,14.6-16.9,14.6-27.6l0-0.2c2.6-21,4.5-61.4,26.8-97c9.9-15.8,15.7-33.9,15.7-52.5v-84.8L320.3,437.6z"/>
		<path class="st0" d="M486.2,862.2c-64.2,0-103.4-14.4-125.1-26.6c-15.9-8.8-25-25.7-23.1-43.1c0-0.2,0.1-0.7,0.1-0.9
			c1.6-14.6,2.1-29.5,1.3-43.9c-2-40.3-8.5-70.5-20.8-115.5c-5.4-19.7-8.2-39.2-8.2-58.1l-0.1-136.5c0-5.5,4.4-10,9.9-10
			c0,0,0,0,0,0c5.5,0,9.9,4.4,9.9,9.9l0.1,136.5c0.1,17.1,2.6,34.9,7.5,52.9c12.6,46.4,19.4,77.7,21.5,119.8
			c0.8,15.4,0.3,31.4-1.5,47.5c0,0.2-0.1,0.7-0.1,0.9c-0.9,9,4,18.1,13.1,23.1c19.7,11,55.6,24.1,115.4,24.1c0.5,0,1,0,1.5,0
			c66.3-0.2,100.4-18.1,114.7-28.8c6.7-4.9,10.5-12,10.5-19.6c0-0.4,0-1,0.1-1.5c0.3-2.4,0.6-5.1,0.9-8c2.4-22.3,6.5-59.7,27.3-93
			c9.3-14.8,14.2-31.2,14.2-47.3v-84.8c0-5.5,4.5-9.9,9.9-9.9c5.5,0,9.9,4.5,9.9,9.9v84.8c0,19.8-6,39.8-17.3,57.8
			c-18.4,29.4-22,62.6-24.4,84.6c-0.3,2.8-0.6,5.3-0.9,7.7c-0.1,13.9-6.9,26.6-18.6,35.2c-19.9,14.7-58,32.4-126.4,32.6
			C487.3,862.2,486.7,862.2,486.2,862.2z"/>
	</g>
	<g>
		<path class="st0" d="M626.3,131.9c-7.3-7.4-17.3-12-28.4-11.9c-21.7,0.1-39.2,17.8-39.9,39.9v285.4l80.2,6.1V160.9
			C638.1,149.6,633.6,139.3,626.3,131.9z"/>
		<path class="st0" d="M638.2,461.3c-5.5,0-9.9-4.5-9.9-9.9V160.9c0-8.3-3.2-16.2-9-22.1c-5.7-5.7-13.2-8.9-21.2-8.9
			c0,0-0.1,0-0.1,0c-16.3,0.1-29.5,13.3-30,30.2l0,285.1c0,5.5-4.5,9.9-9.9,9.9c-5.5,0-9.9-4.5-9.9-9.9V159.8
			c0.8-27.9,22.7-49.7,49.8-49.8c13.3-0.1,26,5.2,35.5,14.9c9.5,9.7,14.7,22.5,14.7,36v290.4C648.1,456.8,643.7,461.3,638.2,461.3z"
			/>
	</g>
	<g>
		<path class="st0" d="M463,707.3c-5.5,0-9.9-4.5-9.9-9.9c0-69.4,15.8-120.2,46.9-150.9c28.8-28.5,60.2-28.3,61.5-28.4
			c5.5,0.1,9.9,4.6,9.8,10.1c-0.1,5.4-4.5,9.8-9.9,9.8c0,0,0,0-0.1,0c-3.8,0-88.3,2-88.3,159.4C473,702.9,468.5,707.3,463,707.3z"/>
	</g>
	<g>
		<path class="st0" d="M363.2,558c-21.3,3.8-41.5-10.4-45.3-31.7l-17.1-96.6c-3.8-21.3,10.4-41.5,31.7-45.3l0,0
			c21.3-3.8,41.5,10.4,45.3,31.7l17.1,96.6C398.6,533.9,384.4,554.2,363.2,558L363.2,558z"/>
		<path class="st0" d="M356.3,568.5c-23.3,0-44-16.7-48.2-40.5l-17.1-96.6c-2.3-12.9,0.6-25.9,8.1-36.6
			c7.5-10.7,18.7-17.9,31.6-20.2c12.9-2.3,25.9,0.6,36.6,8.1c10.7,7.5,17.9,18.7,20.2,31.6l17.1,96.6c2.3,12.9-0.6,25.9-8.1,36.6
			c-7.5,10.7-18.7,17.9-31.6,20.2C362,568.3,359.1,568.5,356.3,568.5z M339.3,393.8c-1.7,0-3.4,0.1-5.2,0.5
			c-7.7,1.4-14.3,5.6-18.8,12c-4.5,6.4-6.2,14.1-4.8,21.8l17.1,96.6c2.8,15.8,18,26.4,33.8,23.6c7.7-1.4,14.3-5.6,18.8-12
			c4.5-6.4,6.2-14.1,4.8-21.8l-17.1-96.6c-1.4-7.7-5.6-14.3-12-18.8C350.9,395.6,345.2,393.8,339.3,393.8z"/>
	</g>
	<g>
		<path class="st0" d="M406.2,347.8c-21.8,3.9-36.3,24.6-32.4,46.4l26,146.4c3.9,21.8,24.6,36.3,46.4,32.4l0,0
			c21.8-3.9,36.3-24.6,32.4-46.4l-26-146.4C448.8,358.4,428,343.9,406.2,347.8L406.2,347.8z"/>
		<path class="st0" d="M439.1,583.6c-10.1,0-20-3.1-28.5-9c-10.9-7.6-18.3-19.1-20.6-32.2l-26-146.4c-4.8-27.1,13.3-53.1,40.5-57.9
			c0,0,0,0,0,0c27.1-4.8,53.1,13.3,57.9,40.5l26,146.4c2.3,13.1-0.6,26.4-8.2,37.3c-7.6,10.9-19.1,18.3-32.2,20.6
			C445,583.3,442,583.6,439.1,583.6z M408,357.6c-16.3,2.9-27.3,18.5-24.4,34.9l26,146.4c1.4,7.9,5.8,14.8,12.4,19.4
			c6.6,4.6,14.6,6.4,22.5,5c7.9-1.4,14.8-5.8,19.4-12.4c4.6-6.6,6.4-14.6,5-22.5l-26-146.4C439.9,365.6,424.3,354.7,408,357.6
			L408,357.6z"/>
	</g>
	<g>
		<path class="st0" d="M604.2,445.2H500.9c-29,0-43.9,19.5-43.9,43.5c0,17.7,14.1,40.1,45.9,40.1h59.4l42,32.8l61.3-2.2
			C665.9,491.8,671.8,445.2,604.2,445.2z"/>
		<path class="st0" d="M604.2,571.6c-2.1,0-4.3-0.7-6.1-2.1l-39.3-30.7h-56c-36.2,0-55.8-25.8-55.8-50.1c0-32,21.6-53.5,53.9-53.5
			h103.3c24.1,0,41.4,5.7,52.9,17.3c19.4,19.7,19,51.9,18.5,92.7c-0.1,4.6-0.1,9.4-0.2,14.3c0,5.5-4.5,9.9-9.9,9.9c0,0,0,0-0.1,0
			c-5.5,0-9.9-4.5-9.9-10c0-4.9,0.1-9.7,0.2-14.4c0.5-36.1,0.9-64.7-12.7-78.4c-7.6-7.7-20.3-11.4-38.8-11.4H500.9
			c-21.3,0-34,12.6-34,33.6c0,12.1,9.6,30.2,35.9,30.2h59.4c2.2,0,4.4,0.7,6.1,2.1l42,32.8c4.3,3.4,5.1,9.6,1.7,14
			C610,570.3,607.1,571.6,604.2,571.6z"/>
	</g>
</g>
</svg>
