<?xml version="1.0" encoding="utf-8"?>
<!-- Generator: Adobe Illustrator 21.0.0, SVG Export Plug-In . SVG Version: 6.00 Build 0)  -->
<svg version="1.1" id="zero" xmlns="http://www.w3.org/2000/svg" xmlns:xlink="http://www.w3.org/1999/xlink" x="0px" y="0px"
	 viewBox="0 0 1000 1000" style="enable-background:new 0 0 1000 1000;" xml:space="preserve">
<style type="text/css">
	.st0{fill:#F7F7F7;stroke:#666666;stroke-width:2;stroke-miterlimit:10;}
	.st0:hover{fill:pink}
</style>
<g>
	<g>
		<path class="st0" d="M660.6,580.9v0.4c0,19-15.3,34.5-34.4,34.7c-19.2,0.2-34.9-15.2-35.1-34.4l-0.2-14.8
			c7.9,10.9,21.7,16.6,35.6,13.5c16.2-3.6,27.2-17.9,27.2-33.9c0-2.5-0.3-5.1-0.9-7.6l-65.4-292.3l-0.2-22.4v-0.3
			c0-19,15.3-34.5,34.4-34.8c19.2-0.2,35,15.2,35.1,34.4L660.6,580.9z"/>
		<path class="st0" d="M625.8,624.6c-11.4,0-22.1-4.4-30.3-12.4c-8.3-8.1-12.9-18.9-13-30.5l-0.2-14.8c0-3.8,2.4-7.1,5.9-8.3
			c3.5-1.2,7.5,0.1,9.7,3.1c6.1,8.4,16.6,12.4,26.8,10.1c11.9-2.7,20.5-13.4,20.5-25.4c0-1.9-0.2-3.8-0.7-5.8l-65.4-292.3
			c-0.1-0.6-0.2-1.2-0.2-1.8l-0.2-22.4c0-24.1,19.2-43.6,42.9-43.8c0.1,0,0.3,0,0.4,0c11.5,0,22.2,4.4,30.4,12.4
			c8.3,8.1,12.9,19,13,30.6l3.8,357.5c0,0,0,0.1,0,0.1v0.4c0,23.7-19.3,43.1-42.9,43.3C626.1,624.6,625.9,624.6,625.8,624.6z
			 M600,585.4c0.9,5.5,3.5,10.6,7.5,14.6c4.9,4.8,11.4,7.4,18.2,7.4c0.1,0,0.2,0,0.3,0c14.3-0.1,25.9-11.8,25.9-26.1l8.6-0.4
			L652,581l-0.1-6.5c-6,7-14.1,12.1-23.5,14.2C618.7,590.8,608.7,589.5,600,585.4z M596.1,245.4L651,490.8l-2.8-267.4
			c-0.1-14.3-11.9-25.9-26.2-25.9c-0.1,0-0.2,0-0.2,0c-14.2,0.2-25.8,11.9-25.8,26.2L596.1,245.4z"/>
	</g>
	<g>
		<path class="st0" d="M653.8,546.4c0,15.9-11,30.2-27.2,33.9c-13.9,3.1-27.8-2.6-35.6-13.5c-2.8-3.7-4.8-8.1-5.9-12.9l-78-348.9
			c-0.6-2.6-0.9-5.1-0.9-7.6c0-15.9,11-30.2,27.2-33.9c18.7-4.2,37.3,7.6,41.5,26.3l12.6,56.6l65.4,292.3
			C653.5,541.3,653.8,543.9,653.8,546.4z"/>
		<path class="st0" d="M619,589.7c-13.7,0-26.8-6.5-35-17.8c-3.5-4.7-5.9-10.1-7.3-16l-78-349c-0.7-3.2-1.1-6.3-1.1-9.5
			c0-20.1,14.3-37.9,33.9-42.3c11.3-2.5,22.9-0.5,32.7,5.7c9.8,6.2,16.6,15.9,19.1,27.2l78,348.9c0.7,3.2,1.1,6.4,1.1,9.5
			c0,20.1-14.3,37.9-33.9,42.3C625.3,589.4,622.1,589.7,619,589.7z M541,171.2c-1.9,0-3.9,0.2-5.8,0.6
			c-11.9,2.7-20.5,13.4-20.5,25.4c0,1.9,0.2,3.8,0.7,5.8l78,348.9c0.8,3.5,2.3,6.8,4.4,9.6c6.1,8.5,16.7,12.4,26.8,10.2
			c11.9-2.7,20.5-13.4,20.5-25.4c0-1.9-0.2-3.8-0.7-5.8l-78-348.9c-1.5-6.8-5.6-12.6-11.5-16.4C550.7,172.6,545.9,171.2,541,171.2z"
			/>
	</g>
	<g>
		<path class="st0" d="M399.2,600.7l-16.5-56.2c-7.4-17.1-27.4-25-44.5-17.7l0,0c-17.1,7.4-25,27.4-17.7,44.5l13.9,51l58,94.4
			c0,0,47.6,68,46.2,108.6c-1.4,41.8,205.4,31.3,209.1-3.9c0.9-8.3,0.3-17.8-0.9-26.9c-4.1-31.7,1.6-88.4,4.4-113
			c0.9-7.4,2.2-14.8,3.7-22.1c3.7-18.7,5.6-37.8,5.6-56.8v-73.7l-69.1-88.2l-98-55.2c-8-4.5-17.9-4.3-25.7,0.5l-88,54.3
			c-9.6,5.9-15.4,16.4-15.4,27.7v52c29.3,35.6,67.7,14.6,67.7-14.9v-15l33.7-21.1c9.6-6,21.8-5.9,31.3,0.2l46,29.6l34.5,49
			l-16.9,60.4c-2.1,7.3-7.4,13.3-14.5,16.1l-64,25.3l0,0c-14.5,4.7-24,8.6-35.4-1.4L399.2,600.7z"/>
		<path class="st0" d="M525.9,860.9c-8.7,0-16.8-0.3-24-0.8c-47.7-3.3-72.6-15.5-71.9-35.2c1-30.9-31.9-85.1-44.7-103.4l-58.3-94.8
			c-0.4-0.7-0.8-1.5-1-2.3L312.4,574c-4.2-10.2-4.3-21.5-0.2-31.9c4.2-10.6,12.2-18.8,22.6-23.3c6.7-2.9,13.9-4,21-3.3v-47.7
			c0-14.4,7.3-27.5,19.5-35l88-54.3c10.5-6.5,23.7-6.7,34.4-0.7l98,55.2c1,0.6,1.9,1.3,2.6,2.2l69.1,88.2c1.2,1.5,1.8,3.4,1.8,5.3
			v73.7c0,19.6-1.9,39.3-5.8,58.5c-1.3,6.7-2.7,14-3.6,21.4c-2.7,23-8.4,80-4.4,111c1.4,11.1,1.7,20.8,0.9,28.9
			C653.3,851.1,578.9,860.9,525.9,860.9z M342.4,618.7l57.4,93.3c1.7,2.4,48.9,70.4,47.5,113.4c-0.2,5.3,14.8,14.7,55.9,17.5
			c71.3,4.9,135-12.1,136.1-22.6c0.7-6.7,0.4-15.1-0.8-24.9c-4.1-31.7,1-85.7,4.4-115.1c0.9-8,2.4-15.7,3.8-22.8
			c3.6-18.1,5.4-36.7,5.4-55.2v-70.7l-66.2-84.5l-96.5-54.3c-5.3-3-11.8-2.8-16.9,0.3l-88,54.4c-7.1,4.4-11.4,12-11.4,20.4v48.8
			c10.5,11.5,22.7,15.9,33.9,11.9c9.9-3.6,16.5-13,16.5-23.6v-15c0-3,1.5-5.7,4-7.3l33.7-21.1c12.4-7.7,28.3-7.6,40.5,0.3l46,29.6
			c0.9,0.6,1.7,1.4,2.4,2.3l34.5,49c1.5,2.1,2,4.8,1.3,7.3l-16.9,60.4c-2.8,9.9-10.1,18-19.6,21.8l-66.9,26.2
			c-13.8,4.5-26.9,8.8-41.4-3.9l-47.8-47.8c-1-1-1.8-2.3-2.2-3.7l-16.3-55.7c-2.7-5.9-7.5-10.5-13.7-13c-6.3-2.5-13.1-2.4-19.3,0.2
			c-6.2,2.6-10.9,7.6-13.4,13.8c-2.5,6.3-2.4,13.1,0.2,19.3c0.2,0.4,0.3,0.8,0.4,1.2L342.4,618.7z M406.8,596.1l45.9,45.9
			c6.4,5.6,10.7,4.6,24.3,0.1l2.4-0.8l63.5-25.1c4.6-1.8,8.1-5.7,9.4-10.4l15.8-56.5l-31.2-44.2l-44.6-28.7
			c-6.7-4.3-15.3-4.4-22-0.1l-29.6,18.6V505c0,17.8-11.2,33.8-28,39.8c-6.7,2.4-13.5,3-20.3,2L406.8,596.1z"/>
	</g>
</g>
</svg>
